<?xml version="1.0" encoding="UTF-8"?>
<!DOCTYPE svg PUBLIC "-//W3C//DTD SVG 1.1//EN" "http://www.w3.org/Graphics/SVG/1.1/DTD/svg11.dtd">
<!-- Creator: CorelDRAW (Evaluation Version) -->
<svg xmlns="http://www.w3.org/2000/svg" xml:space="preserve" width="0.402969in" height="0.149945in" version="1.1" style="shape-rendering:geometricPrecision; text-rendering:geometricPrecision; image-rendering:optimizeQuality; fill-rule:evenodd; clip-rule:evenodd"
viewBox="0 0 402.97 149.94"
 xmlns:xlink="http://www.w3.org/1999/xlink"
 xmlns:xodm="http://www.corel.com/coreldraw/odm/2003">
 <defs>
  <style type="text/css">
   <![CDATA[
    .fil6 {fill:#2B2B2A;fill-rule:nonzero}
    .fil3 {fill:url(#id0)}
    .fil5 {fill:url(#id1)}
    .fil4 {fill:url(#id2)}
    .fil2 {fill:url(#id3);fill-rule:nonzero}
    .fil0 {fill:url(#id4);fill-rule:nonzero}
    .fil1 {fill:url(#id5);fill-rule:nonzero}
   ]]>
  </style>
  <linearGradient id="id0" gradientUnits="userSpaceOnUse" x1="-35.96" y1="76.41" x2="150.99" y2="76.41">
   <stop offset="0" style="stop-opacity:1; stop-color:#FCF290"/>
   <stop offset="0.027451" style="stop-opacity:1; stop-color:#F6D665"/>
   <stop offset="0.0588235" style="stop-opacity:1; stop-color:#EFB939"/>
   <stop offset="0.168627" style="stop-opacity:1; stop-color:#D9A133"/>
   <stop offset="0.490196" style="stop-opacity:1; stop-color:#C3892C"/>
   <stop offset="0.694118" style="stop-opacity:1; stop-color:#E1A934"/>
   <stop offset="0.85098" style="stop-opacity:1; stop-color:#FFCA3D"/>
   <stop offset="1" style="stop-opacity:1; stop-color:#DABF7F"/>
  </linearGradient>
  <linearGradient id="id1" gradientUnits="userSpaceOnUse" x1="115.01" y1="110.53" x2="115.01" y2="215.14">
   <stop offset="0" style="stop-opacity:1; stop-color:#00A0E4"/>
   <stop offset="1" style="stop-opacity:1; stop-color:white"/>
  </linearGradient>
  <linearGradient id="id2" gradientUnits="userSpaceOnUse" xlink:href="#id1" x1="101.61" y1="29.47" x2="101.61" y2="214.51">
  </linearGradient>
  <linearGradient id="id3" gradientUnits="userSpaceOnUse" xlink:href="#id0" x1="267.04" y1="143.56" x2="404.58" y2="143.56">
  </linearGradient>
  <linearGradient id="id4" gradientUnits="userSpaceOnUse" xlink:href="#id0" x1="100.85" y1="43.48" x2="385.73" y2="43.48">
  </linearGradient>
  <linearGradient id="id5" gradientUnits="userSpaceOnUse" xlink:href="#id1" x1="327.66" y1="82.41" x2="327.66" y2="244.54">
  </linearGradient>
 </defs>
 <g id="Layer_x0020_1">
  <metadata id="CorelCorpID_0Corel-Layer"/>
  <g id="_497043176">
   <g>
    <path class="fil0" d="M173.64 17.94c3.72,0 7.09,0.72 10.09,2.17 3,1.44 5.42,3.33 7.28,5.67 1.84,2.35 3.27,5.03 4.27,8.02 1,2.99 1.51,6.04 1.51,9.18 0,3.13 -0.5,6.2 -1.51,9.19 -1,2.99 -2.43,5.66 -4.27,8.01 -1.86,2.35 -4.28,4.25 -7.28,5.69 -3,1.44 -6.37,2.15 -10.09,2.15l-17.99 0c1.71,-0.32 2.87,-1.05 3.5,-2.18 0.62,-1.11 0.93,-2.61 0.93,-4.49l0 -36.75c0,-1.87 -0.31,-3.37 -0.93,-4.49 -0.62,-1.12 -1.78,-1.84 -3.5,-2.18l17.99 0zm0 48.57c2.62,0.02 4.96,-0.81 7,-2.52 2.04,-1.71 3.6,-3.94 4.67,-6.69 1.06,-2.76 1.85,-5.82 2.35,-9.16 0.5,-3.34 0.5,-6.69 0,-10.06 -0.5,-3.35 -1.28,-6.42 -2.33,-9.18 -1.05,-2.78 -2.61,-5.04 -4.67,-6.79 -2.06,-1.75 -4.39,-2.65 -7.02,-2.67l-5.11 0 0 47.07 5.11 0zm26.9 1.51c2.94,-0.56 4.42,-3.05 4.42,-7.47l0 -35.15c0,-4.42 -1.47,-6.91 -4.42,-7.47l34.13 0 1.65 6.28 0 6.31c-0.36,-3.34 -1.62,-6.02 -3.8,-8.05 -2.17,-2.02 -4.87,-3.04 -8.1,-3.04l-11.02 0 0 22.77 5.54 0c1.54,0 2.84,-0.11 3.87,-0.32 1.03,-0.2 1.98,-0.59 2.84,-1.15 0.86,-0.56 1.54,-1.38 2.05,-2.42 0.5,-1.06 0.86,-2.39 1.07,-4l0 17.29c-0.41,-3.11 -1.36,-5.2 -2.88,-6.26 -1.51,-1.07 -3.83,-1.59 -6.94,-1.59l-5.54 0 0 22.76 11.02 0c3.21,0 5.9,-1.02 8.09,-3.05 2.18,-2.04 3.45,-4.72 3.81,-8.07l0 6.32 -1.65 6.31 -34.13 0zm64.28 0.77c-2.99,0 -5.76,-0.48 -8.31,-1.44 -2.55,-0.96 -4.72,-2.26 -6.5,-3.93 -1.8,-1.67 -3.31,-3.59 -4.58,-5.78 -1.26,-2.2 -2.19,-4.54 -2.8,-7.01 -0.61,-2.48 -0.91,-5.03 -0.91,-7.65 0,-2.62 0.3,-5.16 0.91,-7.65 0.61,-2.48 1.54,-4.81 2.8,-7 1.27,-2.2 2.79,-4.13 4.58,-5.79 1.78,-1.65 3.95,-2.97 6.5,-3.93 2.55,-0.96 5.31,-1.44 8.31,-1.44 1.46,0 2.6,0.01 3.43,0.05 0.83,0.04 2,0.17 3.5,0.41 1.5,0.24 3.06,0.59 4.73,1.06l0 12.63c-0.3,-2.22 -0.96,-4.27 -1.96,-6.17 -1,-1.88 -2.36,-3.42 -4.05,-4.64 -1.7,-1.21 -3.58,-1.82 -5.64,-1.82 -1.84,0 -3.56,0.48 -5.13,1.43 -1.58,0.96 -2.92,2.24 -4.04,3.84 -1.1,1.61 -2.06,3.45 -2.83,5.54 -0.78,2.09 -1.37,4.29 -1.74,6.57 -0.37,2.29 -0.56,4.6 -0.56,6.91 0,3.23 0.43,6.25 1.28,9.07 0.85,2.81 2,5.21 3.44,7.19 1.44,1.97 3.13,3.59 5.05,4.83 1.93,1.26 3.94,2.02 6.02,2.32 2.07,0.29 4.24,0.05 6.46,-0.72 2.24,-0.78 4.33,-2.08 6.3,-3.93 -1.13,2.22 -3.02,3.95 -5.69,5.19 -2.66,1.24 -5.52,1.85 -8.56,1.85zm29.6 -49.41c3.02,-1.47 6.38,-2.2 10.09,-2.2 3.72,0 7.09,0.73 10.09,2.2 3,1.48 5.42,3.43 7.28,5.87 1.85,2.43 3.27,5.18 4.28,8.27 1,3.09 1.51,6.25 1.51,9.47 0,3.23 -0.5,6.38 -1.51,9.47 -1.01,3.09 -2.43,5.84 -4.28,8.28 -1.85,2.43 -4.27,4.38 -7.28,5.85 -3,1.47 -6.37,2.2 -10.09,2.2 -3.71,0 -7.07,-0.73 -10.09,-2.2 -3.02,-1.47 -5.44,-3.43 -7.3,-5.85 -1.84,-2.44 -3.27,-5.2 -4.28,-8.28 -1,-3.09 -1.51,-6.24 -1.51,-9.47 0,-3.22 0.5,-6.38 1.51,-9.47 1.01,-3.09 2.43,-5.84 4.28,-8.27 1.85,-2.43 4.28,-4.38 7.3,-5.87zm3.09 45.19c2.05,1.8 4.39,2.68 7,2.68 2.62,0 4.96,-0.89 7.01,-2.66 2.06,-1.78 3.63,-4.09 4.69,-6.94 1.06,-2.86 1.84,-6.01 2.35,-9.47 0.5,-3.46 0.5,-6.92 0,-10.37 -0.5,-3.44 -1.29,-6.61 -2.35,-9.47 -1.06,-2.86 -2.63,-5.19 -4.69,-6.98 -2.05,-1.78 -4.39,-2.68 -7.01,-2.68 -2.61,0 -4.96,0.89 -7,2.67 -2.06,1.77 -3.61,4.08 -4.67,6.94 -1.05,2.85 -1.83,6.01 -2.33,9.47 -0.5,3.46 -0.5,6.91 0,10.35 0.5,3.45 1.28,6.61 2.33,9.47 1.06,2.87 2.61,5.2 4.67,6.98zm61.5 -18.26c1.38,0.76 2.67,1.75 3.85,2.99 1.2,1.23 2.23,2.52 3.08,3.82 0.85,1.3 1.69,2.68 2.52,4.12 0.83,1.44 1.68,2.79 2.56,4.05 0.87,1.27 1.82,2.41 2.85,3.42 1.03,1.02 2.26,1.82 3.7,2.42 1.45,0.6 3.04,0.9 4.79,0.9 -10.45,1.69 -16.9,0.52 -19.35,-3.5 -0.64,-0.96 -1.5,-2.36 -2.6,-4.22 -1.09,-1.84 -2.05,-3.4 -2.84,-4.65 -0.79,-1.27 -1.69,-2.57 -2.68,-3.93 -0.99,-1.36 -1.96,-2.39 -2.9,-3.11 -0.93,-0.71 -1.83,-1.07 -2.69,-1.07l-4.88 0 0 13.01c0,4.42 1.46,6.91 4.39,7.47l-17.3 0c2.94,-0.56 4.42,-3.05 4.42,-7.47l0 -35.15c0,-4.42 -1.47,-6.91 -4.42,-7.47l19.19 0c2.68,0 5.15,0.35 7.36,1.02 2.22,0.69 4.06,1.58 5.51,2.71 1.44,1.12 2.65,2.43 3.58,3.91 0.93,1.48 1.54,3.03 1.82,4.62 0.29,1.61 0.29,3.23 0,4.89 -0.28,1.64 -0.84,3.19 -1.67,4.62 -0.83,1.43 -1.96,2.74 -3.39,3.91 -1.43,1.17 -3.07,2.07 -4.91,2.69zm-8.31 -0.28c1.52,0 2.9,-0.38 4.15,-1.14 1.24,-0.76 2.26,-1.77 3.05,-3.02 0.78,-1.26 1.39,-2.67 1.82,-4.26 0.43,-1.59 0.66,-3.22 0.67,-4.87 0.01,-1.67 -0.19,-3.29 -0.6,-4.87 -0.41,-1.59 -1,-3.02 -1.77,-4.26 -0.77,-1.26 -1.78,-2.26 -3.06,-3.02 -1.26,-0.77 -2.68,-1.15 -4.27,-1.15l-6.28 0 0 26.59 6.28 0z"/>
    <path class="fil1" d="M173.64 80.07c3.72,0 7.09,0.72 10.09,2.17 3,1.44 5.42,3.33 7.28,5.68 1.84,2.35 3.27,5.03 4.27,8.02 1,2.99 1.51,6.04 1.51,9.18 0,3.13 -0.5,6.2 -1.51,9.19 -1,2.99 -2.43,5.66 -4.27,8.01 -1.86,2.35 -4.28,4.25 -7.28,5.69 -3,1.44 -6.37,2.16 -10.09,2.16l-17.99 0c1.71,-0.33 2.87,-1.06 3.5,-2.18 0.62,-1.11 0.93,-2.61 0.93,-4.49l0 -36.75c0,-1.87 -0.31,-3.37 -0.93,-4.49 -0.62,-1.12 -1.78,-1.84 -3.5,-2.18l17.99 0zm0 48.57c2.62,0.02 4.96,-0.81 7,-2.52 2.04,-1.71 3.6,-3.94 4.67,-6.69 1.06,-2.76 1.85,-5.81 2.35,-9.16 0.5,-3.34 0.5,-6.69 0,-10.06 -0.5,-3.35 -1.28,-6.41 -2.33,-9.18 -1.05,-2.78 -2.61,-5.04 -4.67,-6.79 -2.06,-1.75 -4.39,-2.65 -7.02,-2.67l-5.11 0 0 47.07 5.11 0zm79.54 -11.81c-0.31,0.91 -0.52,1.69 -0.63,2.35 -0.12,0.66 -0.15,1.3 -0.07,1.93 0.07,0.63 0.33,1.15 0.79,1.54 0.46,0.39 1.1,0.69 1.95,0.84l-10.59 0c3.19,-0.6 5.46,-2.83 6.83,-6.66l13.61 -37.53c1.75,4.81 4.02,11.07 6.82,18.76 2.79,7.7 5.06,13.94 6.82,18.77 0.67,1.82 1.55,3.31 2.62,4.45 1.08,1.14 2.48,1.88 4.22,2.2l-18.03 0c0.73,-0.13 1.3,-0.35 1.73,-0.62 0.43,-0.29 0.74,-0.61 0.94,-0.97 0.18,-0.36 0.26,-0.83 0.24,-1.39 -0.02,-0.56 -0.11,-1.1 -0.24,-1.64 -0.15,-0.54 -0.36,-1.21 -0.64,-2 -0.19,-0.56 -0.45,-1.31 -0.8,-2.23 -0.36,-0.93 -0.55,-1.47 -0.6,-1.64l-13.61 0c-0.17,0.49 -0.62,1.77 -1.37,3.83zm8.24 -22.93c-1.62,4.44 -3.71,10.3 -6.31,17.56l12.52 0c-2.25,-6.48 -4.32,-12.33 -6.21,-17.56zm1.69 30.57c0.25,1.96 0.93,3.72 2.03,5.27 1.72,0.72 3.93,1.26 6.6,1.62 -2.53,0.3 -4.73,0.83 -6.6,1.6 -1.1,1.54 -1.78,3.29 -2.03,5.23 -0.26,-1.94 -0.94,-3.69 -2.04,-5.23 -1.87,-0.77 -4.07,-1.3 -6.6,-1.6 2.67,-0.36 4.86,-0.9 6.6,-1.62 1.1,-1.54 1.77,-3.3 2.04,-5.27zm-36.24 -15.52c1.57,0.76 3.16,1.9 4.78,3.41 1.62,1.51 2.93,2.91 3.96,4.22 1.03,1.29 2.38,3.07 4.07,5.34 1.33,1.81 2.35,3.17 3.06,4.09 0.69,0.93 1.76,2.19 3.17,3.82 1.41,1.63 2.62,2.85 3.63,3.67 1,0.83 2.33,1.81 3.98,2.94 1.64,1.15 3.21,1.94 4.69,2.37 1.48,0.43 3.27,0.84 5.35,1.21 2.08,0.37 4.19,0.43 6.33,0.18 2.13,-0.26 4.55,-0.73 7.24,-1.42 2.68,-0.69 5.51,-1.67 8.45,-2.92 -16.26,8.74 -29.57,10.01 -39.94,3.78 -4.42,-2.65 -8.67,-6.92 -12.74,-12.83 -0.72,-1.05 -2.52,-3.87 -5.4,-8.45 -2.29,-3.7 -4.13,-6.12 -5.5,-7.27 -1.1,-0.91 -2.17,-1.38 -3.22,-1.4l-5.38 0 0 13.01c0,4.42 1.48,6.91 4.43,7.47l-17.3 0c2.94,-0.56 4.42,-3.06 4.42,-7.47l0 -35.15c0,-4.42 -1.47,-6.91 -4.42,-7.47l19.19 0c2.68,0 5.15,0.35 7.36,1.04 2.22,0.68 4.06,1.6 5.52,2.75 1.47,1.14 2.67,2.46 3.6,3.97 0.94,1.51 1.54,3.09 1.79,4.72 0.26,1.64 0.22,3.29 -0.11,4.97 -0.32,1.68 -0.93,3.23 -1.83,4.69 -0.91,1.47 -2.14,2.79 -3.72,3.99 -1.58,1.2 -3.4,2.11 -5.46,2.74zm-7.15 -0.78c1.52,0 2.9,-0.38 4.15,-1.14 1.24,-0.76 2.26,-1.77 3.03,-3.02 0.78,-1.26 1.38,-2.67 1.81,-4.26 0.43,-1.59 0.66,-3.22 0.69,-4.87 0.02,-1.67 -0.17,-3.29 -0.57,-4.87 -0.41,-1.59 -1,-3.02 -1.77,-4.26 -0.77,-1.26 -1.79,-2.26 -3.06,-3.02 -1.26,-0.77 -2.68,-1.15 -4.27,-1.15l-6.32 0 0 26.59 6.32 0zm85.36 -28.09c3.04,0 5.77,0.43 8.2,1.28 2.44,0.86 4.39,1.98 5.87,3.35 1.47,1.37 2.59,2.96 3.37,4.74 0.76,1.77 1.13,3.58 1.1,5.43 -0.04,1.84 -0.46,3.65 -1.29,5.44 -0.84,1.77 -1.99,3.35 -3.47,4.73 -1.48,1.39 -3.42,2.5 -5.8,3.35 -2.39,0.85 -5.04,1.28 -7.96,1.28l-6.32 0 0 13.01c0,4.42 1.48,6.91 4.43,7.47l-17.3 0c2.94,-0.56 4.42,-3.06 4.42,-7.47l0 -35.15c0,-4.42 -1.47,-6.91 -4.42,-7.47l19.19 0zm0 28.09c1.59,0 3.02,-0.38 4.3,-1.14 1.27,-0.76 2.3,-1.77 3.06,-3.02 0.78,-1.26 1.37,-2.67 1.79,-4.26 0.43,-1.59 0.63,-3.22 0.62,-4.87 -0.01,-1.67 -0.24,-3.29 -0.67,-4.87 -0.43,-1.59 -1.04,-3.02 -1.82,-4.26 -0.79,-1.26 -1.81,-2.26 -3.07,-3.02 -1.26,-0.77 -2.66,-1.15 -4.2,-1.15l-6.32 0 0 26.59 6.32 0zm21.25 21.99c2.94,-0.56 4.42,-3.06 4.42,-7.47l0 -35.15c0,-4.42 -1.48,-6.91 -4.42,-7.47l34.13 0 1.65 6.28 0 6.31c-0.36,-3.34 -1.62,-6.02 -3.8,-8.05 -2.17,-2.02 -4.87,-3.04 -8.11,-3.04l-11.01 0 0 22.77 5.54 0c1.54,0 2.83,-0.11 3.87,-0.32 1.03,-0.2 1.98,-0.59 2.83,-1.15 0.86,-0.56 1.55,-1.37 2.05,-2.42 0.5,-1.06 0.86,-2.39 1.08,-4l0 17.28c-0.41,-3.11 -1.37,-5.2 -2.89,-6.26 -1.51,-1.07 -3.83,-1.59 -6.94,-1.59l-5.54 0 0 22.76 11.01 0c3.21,0 5.9,-1.02 8.09,-3.05 2.18,-2.04 3.44,-4.72 3.81,-8.07l0 6.32 -1.65 6.31 -34.13 0zm68.71 -9.61c0,-1.35 -0.31,-2.63 -0.92,-3.85 -0.6,-1.22 -1.43,-2.3 -2.45,-3.26 -1.03,-0.97 -2.22,-1.89 -3.56,-2.79 -1.34,-0.91 -2.76,-1.77 -4.25,-2.62 -1.48,-0.84 -2.97,-1.69 -4.45,-2.56 -1.48,-0.86 -2.9,-1.8 -4.24,-2.8 -1.34,-1.01 -2.54,-2.06 -3.58,-3.16 -1.04,-1.09 -1.87,-2.36 -2.49,-3.8 -0.62,-1.45 -0.94,-2.98 -0.96,-4.62 -0.02,-2.24 0.73,-4.28 2.28,-6.13 1.54,-1.86 3.5,-3.26 5.88,-4.22 2.37,-0.96 4.83,-1.44 7.37,-1.44 6.1,0 11.04,1 14.81,2.98l0 10.38c-0.91,-3.39 -2.81,-6.21 -5.7,-8.46 -2.89,-2.26 -5.93,-3.39 -9.11,-3.39 -2.36,0 -4.26,0.62 -5.7,1.88 -1.44,1.24 -2.15,3.2 -2.15,5.83 0,1.31 0.5,2.58 1.5,3.83 0.99,1.23 2.29,2.38 3.89,3.41 1.61,1.04 3.37,2.11 5.29,3.2 1.93,1.09 3.87,2.25 5.8,3.51 1.93,1.24 3.69,2.56 5.29,3.95 1.6,1.38 2.89,3 3.89,4.89 0.99,1.89 1.5,3.89 1.5,6.02 0,1.84 -0.39,3.57 -1.17,5.17 -0.79,1.6 -1.94,3.04 -3.46,4.31 -1.52,1.28 -3.52,2.29 -6.01,3.02 -2.49,0.74 -5.33,1.1 -8.51,1.1 -6.19,-0.18 -11.41,-1.75 -15.65,-4.69l0.18 -11.96c0.75,3.73 2.86,7.04 6.34,9.89 3.07,2.53 6.36,4.08 9.87,4.67 3.61,0.57 6.38,-0.08 8.27,-2 1.44,-1.47 2.19,-3.57 2.21,-6.28z"/>
   </g>
   <path class="fil2" d="M293.49 149.75c0.74,-0.14 1.11,-0.77 1.11,-1.89l0 -8.87c0,-1.12 -0.37,-1.74 -1.11,-1.89l4.37 0c-0.74,0.15 -1.12,0.77 -1.12,1.89l0 8.87c0,1.11 0.38,1.74 1.12,1.89l-4.37 0zm11.83 0c0.43,-0.08 0.72,-0.27 0.88,-0.55 0.16,-0.28 0.24,-0.66 0.24,-1.13l0 -9.28c0,-0.47 -0.08,-0.85 -0.24,-1.13 -0.16,-0.28 -0.45,-0.46 -0.88,-0.55l3.06 0 6.76 11.09 0 -9.41c0,-0.47 -0.08,-0.85 -0.23,-1.13 -0.15,-0.28 -0.44,-0.46 -0.88,-0.55l2.61 0c-0.43,0.09 -0.73,0.27 -0.88,0.55 -0.16,0.28 -0.24,0.66 -0.24,1.13l0 10.96 -1.94 0 -6.76 -11.09c-0.03,0.91 -0.04,1.89 -0.04,2.96 0,1.06 0.01,2.24 0.02,3.53 0.01,1.28 0.02,2.26 0.02,2.92 0,0.48 0.07,0.85 0.23,1.13 0.15,0.28 0.44,0.47 0.88,0.55l-2.61 0zm25.7 -2.43c0,-0.34 -0.08,-0.67 -0.23,-0.97 -0.15,-0.31 -0.36,-0.58 -0.62,-0.82 -0.26,-0.24 -0.56,-0.48 -0.9,-0.7 -0.34,-0.23 -0.69,-0.44 -1.07,-0.66 -0.37,-0.21 -0.75,-0.43 -1.13,-0.65 -0.37,-0.22 -0.73,-0.45 -1.07,-0.71 -0.34,-0.25 -0.64,-0.52 -0.9,-0.8 -0.26,-0.28 -0.47,-0.6 -0.63,-0.96 -0.16,-0.37 -0.24,-0.75 -0.24,-1.17 -0.01,-0.57 0.19,-1.08 0.57,-1.55 0.39,-0.47 0.88,-0.82 1.48,-1.07 0.6,-0.24 1.22,-0.36 1.86,-0.36 1.54,0 2.78,0.25 3.74,0.75l0 2.62c-0.23,-0.85 -0.71,-1.57 -1.44,-2.14 -0.73,-0.57 -1.5,-0.85 -2.3,-0.85 -0.6,0 -1.08,0.16 -1.44,0.48 -0.36,0.31 -0.54,0.81 -0.54,1.47 0,0.33 0.13,0.65 0.38,0.97 0.25,0.31 0.57,0.6 0.98,0.86 0.41,0.26 0.85,0.53 1.34,0.81 0.48,0.28 0.98,0.57 1.46,0.89 0.49,0.31 0.93,0.65 1.34,1 0.41,0.35 0.73,0.76 0.98,1.24 0.25,0.48 0.38,0.98 0.38,1.52 0,0.46 -0.1,0.9 -0.3,1.3 -0.2,0.41 -0.49,0.77 -0.87,1.09 -0.38,0.32 -0.89,0.58 -1.52,0.76 -0.63,0.19 -1.35,0.28 -2.15,0.28 -1.56,-0.05 -2.88,-0.44 -3.95,-1.19l0.05 -3.02c0.19,0.94 0.72,1.78 1.6,2.5 0.77,0.64 1.6,1.03 2.49,1.18 0.91,0.14 1.61,-0.02 2.09,-0.51 0.37,-0.37 0.55,-0.9 0.56,-1.59zm12.11 -9.84c-0.81,0 -1.49,0.26 -2.04,0.77 -0.55,0.51 -0.87,1.19 -0.95,2.03l0 -1.59 0.42 -1.59 10.94 0 0.42 1.59 0 1.59c-0.09,-0.84 -0.41,-1.52 -0.96,-2.03 -0.55,-0.51 -1.23,-0.77 -2.04,-0.77l-1.82 0 0 10.38c0,1.11 0.37,1.74 1.11,1.89l-4.37 0c0.74,-0.14 1.11,-0.77 1.11,-1.89l0 -10.38 -1.81 0zm17.55 1.3c-0.59,-0.96 -1.31,-1.52 -2.15,-1.69l4.74 0c-0.09,0.02 -0.18,0.04 -0.25,0.07 -0.06,0.03 -0.12,0.06 -0.16,0.1 -0.04,0.04 -0.07,0.07 -0.11,0.11 -0.03,0.04 -0.04,0.09 -0.05,0.15 -0,0.07 -0.01,0.12 -0.01,0.16 0,0.05 0.02,0.11 0.05,0.19 0.03,0.08 0.06,0.15 0.08,0.2 0.02,0.05 0.06,0.13 0.11,0.22 0.05,0.09 0.09,0.17 0.13,0.23 0.03,0.06 0.08,0.14 0.15,0.25l2.48 3.98 2.48 -3.98c0.07,-0.11 0.12,-0.19 0.15,-0.25 0.04,-0.06 0.07,-0.13 0.13,-0.23 0.05,-0.09 0.09,-0.17 0.11,-0.22 0.02,-0.06 0.05,-0.12 0.08,-0.2 0.04,-0.08 0.05,-0.15 0.05,-0.19 0,-0.04 -0,-0.09 -0.01,-0.16 -0,-0.06 -0.02,-0.11 -0.05,-0.15 -0.03,-0.04 -0.06,-0.08 -0.11,-0.11 -0.04,-0.04 -0.1,-0.07 -0.17,-0.1 -0.07,-0.02 -0.15,-0.05 -0.24,-0.07l2.68 0c-0.84,0.16 -1.56,0.72 -2.16,1.69l-2.7 4.35 0 4.73c0,1.11 0.37,1.74 1.11,1.89l-4.36 0c0.74,-0.14 1.11,-0.77 1.11,-1.89l0 -4.11c-0.69,-1.11 -1.72,-2.76 -3.09,-4.97zm16.94 10.96c0.74,-0.14 1.11,-0.77 1.11,-1.89l0 -8.87c0,-1.12 -0.37,-1.74 -1.11,-1.89l4.37 0c-0.74,0.15 -1.12,0.77 -1.12,1.89l0 10.38 2.78 0c0.81,0 1.49,-0.26 2.05,-0.77 0.55,-0.51 0.87,-1.19 0.96,-2.04l0 1.59 -0.42 1.59 -8.62 0zm16.29 0c0.74,-0.14 1.12,-0.77 1.12,-1.89l0 -8.87c0,-1.12 -0.37,-1.74 -1.12,-1.89l8.62 0 0.42 1.59 0 1.59c-0.09,-0.84 -0.41,-1.52 -0.96,-2.03 -0.55,-0.51 -1.23,-0.77 -2.05,-0.77l-2.78 0 0 5.75 1.4 0c0.39,0 0.72,-0.03 0.98,-0.08 0.26,-0.05 0.5,-0.15 0.72,-0.29 0.22,-0.14 0.39,-0.35 0.52,-0.61 0.13,-0.27 0.22,-0.61 0.27,-1.01l0 4.36c-0.1,-0.78 -0.34,-1.31 -0.72,-1.58 -0.38,-0.27 -0.97,-0.4 -1.76,-0.4l-1.4 0 0 5.74 2.78 0c0.81,0 1.49,-0.26 2.04,-0.77 0.55,-0.51 0.87,-1.19 0.96,-2.04l0 1.59 -0.42 1.59 -8.62 0z"/>
  </g>
  <g id="_491613360">
   <path class="fil3" d="M11.97 74.14c-0.06,-15.45 2.38,-29.79 8.13,-41.72 4.63,-9.62 8.25,-14.72 15.14,-22.04 2.47,-2.62 4.43,-3.79 5.95,-6.37 -11.59,3.63 -25,18.48 -30.56,27.81 -8.58,14.4 -10.5,27.17 -10.56,47.52l-0.07 70.55 37.33 -0 -0.02 -54.95c-0.03,-18.22 -2.32,-39.91 5.57,-55.33 5.22,-10.21 11.81,-16.65 22.12,-21.8 25.37,-12.67 51.2,0.15 62.08,15.61 15.5,22 11.02,47.62 -5.14,63.67 -22.57,22.41 -45.33,12.04 -71.04,15.46 -0.64,0.94 -0.35,0.17 -0.74,1.79 -0.37,1.52 -0.05,-0.24 -0.22,1.37l0.25 9.45c33.96,-0.54 57.55,3.19 79.8,-17.78 10.24,-9.65 18.76,-24.5 18.79,-45.12 0.09,-57.01 -71.36,-84.39 -109.11,-40.75 -10.75,12.43 -14.93,27.07 -14.92,48.93l0.14 67.04 -12.83 0 -0.11 -63.33z"/>
   <path class="fil4" d="M50.77 45.8c32.76,-20.76 59.97,2.18 60.52,28.33 0.25,11.61 -4.92,18.06 -9.29,25.06 9.92,-5.61 19.11,-11.9 21.43,-25.87 2.42,-14.59 -5.89,-27.29 -12.42,-34.22 -17.77,-18.87 -49.88,-18.2 -60.25,6.7z"/>
   <path class="fil5" d="M49.98 149.92c22.94,-0.13 41.98,1.35 60.22,-7.4 12.94,-6.21 29.31,-21.47 33.28,-33.99 -7.36,7.61 -6.04,7.48 -15.97,14.93 -21.53,16.16 -50.1,14.41 -77.52,13.84l-0.01 12.63z"/>
  </g>
  <polygon class="fil6" points="375.9,18.24 374.9,18.24 374.9,11.19 372.42,11.19 372.42,10.31 378.37,10.31 378.37,11.19 375.9,11.19 "/>
  <path id="_1" class="fil6" d="M383.07 18.24l-2.61 -6.96 -0.04 0c0.01,0.15 0.04,0.33 0.04,0.57 0.01,0.24 0.01,0.48 0.02,0.76 0.01,0.27 0.01,0.55 0.01,0.82l0 4.81 -0.92 0 0 -7.93 1.48 0 2.44 6.5 0.04 0 2.49 -6.5 1.47 0 0 7.93 -0.99 0 0 -4.88c0,-0.26 0,-0.52 0.01,-0.78 0.01,-0.26 0.02,-0.49 0.04,-0.71 0.01,-0.23 0.02,-0.42 0.03,-0.58l-0.04 0 -2.65 6.94 -0.82 0z"/>
 </g>
</svg>
