<?xml version="1.0" encoding="UTF-8"?>
<!DOCTYPE svg PUBLIC "-//W3C//DTD SVG 1.1//EN" "http://www.w3.org/Graphics/SVG/1.1/DTD/svg11.dtd">
<!-- Creator: CorelDRAW (Evaluation Version) -->
<svg xmlns="http://www.w3.org/2000/svg" xml:space="preserve" width="0.174173in" height="0.064811in" version="1.1" style="shape-rendering:geometricPrecision; text-rendering:geometricPrecision; image-rendering:optimizeQuality; fill-rule:evenodd; clip-rule:evenodd"
viewBox="0 0 174.17 64.81"
 xmlns:xlink="http://www.w3.org/1999/xlink"
 xmlns:xodm="http://www.corel.com/coreldraw/odm/2003">
 <defs>
  <style type="text/css">
   <![CDATA[
    .fil6 {fill:#2B2B2A;fill-rule:nonzero}
    .fil5 {fill:url(#id0)}
    .fil4 {fill:url(#id1)}
    .fil3 {fill:url(#id2)}
    .fil1 {fill:url(#id3);fill-rule:nonzero}
    .fil2 {fill:url(#id4);fill-rule:nonzero}
    .fil0 {fill:url(#id5);fill-rule:nonzero}
   ]]>
  </style>
  <linearGradient id="id0" gradientUnits="userSpaceOnUse" x1="49.71" y1="47.77" x2="49.71" y2="92.99">
   <stop offset="0" style="stop-opacity:1; stop-color:#00A0E4"/>
   <stop offset="1" style="stop-opacity:1; stop-color:white"/>
  </linearGradient>
  <linearGradient id="id1" gradientUnits="userSpaceOnUse" xlink:href="#id0" x1="43.92" y1="12.74" x2="43.92" y2="92.72">
  </linearGradient>
  <linearGradient id="id2" gradientUnits="userSpaceOnUse" x1="-15.54" y1="33.03" x2="65.26" y2="33.03">
   <stop offset="0" style="stop-opacity:1; stop-color:#FCF290"/>
   <stop offset="0.027451" style="stop-opacity:1; stop-color:#F6D665"/>
   <stop offset="0.0588235" style="stop-opacity:1; stop-color:#EFB939"/>
   <stop offset="0.168627" style="stop-opacity:1; stop-color:#D9A133"/>
   <stop offset="0.490196" style="stop-opacity:1; stop-color:#C3892C"/>
   <stop offset="0.694118" style="stop-opacity:1; stop-color:#E1A934"/>
   <stop offset="0.85098" style="stop-opacity:1; stop-color:#FFCA3D"/>
   <stop offset="1" style="stop-opacity:1; stop-color:#DABF7F"/>
  </linearGradient>
  <linearGradient id="id3" gradientUnits="userSpaceOnUse" xlink:href="#id0" x1="141.62" y1="35.62" x2="141.62" y2="105.7">
  </linearGradient>
  <linearGradient id="id4" gradientUnits="userSpaceOnUse" xlink:href="#id2" x1="115.42" y1="62.05" x2="174.87" y2="62.05">
  </linearGradient>
  <linearGradient id="id5" gradientUnits="userSpaceOnUse" xlink:href="#id2" x1="43.59" y1="18.8" x2="166.72" y2="18.8">
  </linearGradient>
 </defs>
 <g id="Layer_x0020_1">
  <metadata id="CorelCorpID_0Corel-Layer"/>
  <g id="_433619328">
   <g>
    <g>
     <path class="fil0" d="M75.05 7.76c1.61,0 3.06,0.31 4.36,0.93 1.3,0.62 2.35,1.44 3.15,2.45 0.8,1.02 1.41,2.17 1.85,3.47 0.43,1.29 0.65,2.61 0.65,3.97 0,1.35 -0.22,2.68 -0.65,3.97 -0.44,1.3 -1.05,2.45 -1.85,3.46 -0.8,1.02 -1.85,1.84 -3.15,2.46 -1.3,0.62 -2.75,0.93 -4.36,0.93l-7.78 0c0.74,-0.14 1.24,-0.46 1.51,-0.94 0.27,-0.48 0.41,-1.13 0.41,-1.94l0 -15.88c0,-0.81 -0.13,-1.46 -0.41,-1.94 -0.27,-0.49 -0.77,-0.8 -1.51,-0.94l7.78 0zm0 20.99c1.13,0.01 2.14,-0.35 3.02,-1.09 0.89,-0.74 1.56,-1.7 2.02,-2.89 0.46,-1.2 0.8,-2.52 1.02,-3.96 0.22,-1.44 0.22,-2.89 0,-4.35 -0.22,-1.45 -0.56,-2.77 -1.01,-3.97 -0.45,-1.2 -1.13,-2.18 -2.02,-2.93 -0.89,-0.76 -1.9,-1.14 -3.03,-1.15l-2.21 0 0 20.34 2.21 0zm11.63 0.65c1.27,-0.24 1.91,-1.32 1.91,-3.23l0 -15.19c0,-1.91 -0.64,-2.99 -1.91,-3.23l14.75 0 0.72 2.72 0 2.72c-0.16,-1.44 -0.7,-2.6 -1.64,-3.48 -0.94,-0.87 -2.11,-1.31 -3.5,-1.31l-4.76 0 0 9.84 2.4 0c0.67,0 1.22,-0.05 1.67,-0.14 0.44,-0.09 0.85,-0.25 1.23,-0.5 0.37,-0.24 0.67,-0.59 0.88,-1.04 0.22,-0.46 0.37,-1.04 0.47,-1.73l0 7.47c-0.18,-1.34 -0.59,-2.24 -1.25,-2.7 -0.65,-0.46 -1.66,-0.69 -3,-0.69l-2.4 0 0 9.83 4.76 0c1.39,0 2.55,-0.44 3.5,-1.32 0.94,-0.88 1.49,-2.04 1.65,-3.48l0 2.73 -0.72 2.72 -14.75 0zm27.78 0.33c-1.3,0 -2.49,-0.2 -3.59,-0.62 -1.1,-0.42 -2.04,-0.98 -2.81,-1.7 -0.78,-0.72 -1.43,-1.55 -1.98,-2.5 -0.54,-0.95 -0.95,-1.96 -1.21,-3.03 -0.26,-1.07 -0.39,-2.17 -0.39,-3.31 0,-1.13 0.13,-2.23 0.39,-3.31 0.26,-1.07 0.67,-2.08 1.21,-3.03 0.55,-0.95 1.2,-1.78 1.98,-2.5 0.77,-0.71 1.71,-1.28 2.81,-1.7 1.1,-0.41 2.3,-0.62 3.59,-0.62 0.63,0 1.12,0 1.48,0.02 0.36,0.02 0.87,0.07 1.51,0.17 0.65,0.11 1.33,0.26 2.04,0.46l0 5.46c-0.13,-0.96 -0.41,-1.85 -0.85,-2.67 -0.44,-0.81 -1.02,-1.48 -1.75,-2.01 -0.74,-0.52 -1.55,-0.79 -2.44,-0.79 -0.8,0 -1.54,0.21 -2.22,0.62 -0.69,0.41 -1.26,0.97 -1.74,1.66 -0.48,0.69 -0.89,1.49 -1.22,2.39 -0.34,0.91 -0.59,1.85 -0.75,2.84 -0.16,0.99 -0.24,1.98 -0.24,2.98 0,1.4 0.19,2.7 0.56,3.92 0.37,1.22 0.86,2.25 1.48,3.1 0.62,0.85 1.35,1.56 2.19,2.09 0.83,0.54 1.7,0.87 2.6,1 0.89,0.13 1.83,0.02 2.79,-0.31 0.97,-0.33 1.87,-0.9 2.72,-1.7 -0.49,0.96 -1.31,1.71 -2.46,2.24 -1.15,0.54 -2.39,0.8 -3.7,0.8zm12.8 -21.36c1.3,-0.63 2.76,-0.95 4.36,-0.95 1.61,0 3.06,0.31 4.36,0.95 1.3,0.64 2.35,1.48 3.15,2.54 0.8,1.05 1.41,2.24 1.85,3.57 0.44,1.33 0.65,2.7 0.65,4.09 0,1.4 -0.22,2.76 -0.65,4.09 -0.43,1.33 -1.05,2.53 -1.85,3.58 -0.8,1.05 -1.85,1.89 -3.15,2.53 -1.3,0.64 -2.75,0.95 -4.36,0.95 -1.6,0 -3.06,-0.31 -4.36,-0.95 -1.31,-0.63 -2.35,-1.48 -3.16,-2.53 -0.8,-1.06 -1.41,-2.25 -1.85,-3.58 -0.44,-1.33 -0.65,-2.69 -0.65,-4.09 0,-1.39 0.22,-2.76 0.65,-4.09 0.43,-1.33 1.05,-2.52 1.85,-3.57 0.8,-1.05 1.85,-1.89 3.16,-2.54zm1.33 19.53c0.88,0.78 1.9,1.16 3.02,1.16 1.13,0 2.15,-0.39 3.04,-1.15 0.89,-0.77 1.57,-1.77 2.03,-3 0.45,-1.24 0.8,-2.6 1.01,-4.09 0.22,-1.5 0.22,-2.99 0,-4.48 -0.22,-1.49 -0.56,-2.85 -1.01,-4.09 -0.46,-1.24 -1.14,-2.25 -2.03,-3.02 -0.89,-0.77 -1.9,-1.16 -3.04,-1.16 -1.13,0 -2.14,0.38 -3.02,1.15 -0.89,0.77 -1.56,1.76 -2.02,3 -0.46,1.23 -0.79,2.6 -1.01,4.09 -0.22,1.5 -0.22,2.98 0,4.48 0.22,1.49 0.55,2.85 1.01,4.09 0.46,1.24 1.13,2.24 2.02,3.02zm26.58 -7.89c0.59,0.33 1.15,0.76 1.67,1.3 0.52,0.53 0.96,1.09 1.33,1.65 0.37,0.56 0.73,1.16 1.09,1.78 0.36,0.62 0.72,1.2 1.11,1.75 0.38,0.55 0.79,1.04 1.23,1.48 0.44,0.44 0.98,0.79 1.6,1.05 0.63,0.26 1.31,0.39 2.07,0.39 -4.52,0.73 -7.31,0.22 -8.37,-1.52 -0.28,-0.41 -0.65,-1.02 -1.12,-1.82 -0.47,-0.8 -0.89,-1.47 -1.23,-2.01 -0.34,-0.55 -0.73,-1.11 -1.16,-1.7 -0.43,-0.59 -0.85,-1.04 -1.25,-1.35 -0.41,-0.3 -0.79,-0.46 -1.17,-0.46l-2.11 0 0 5.62c0,1.91 0.63,2.98 1.9,3.23l-7.48 0c1.27,-0.24 1.91,-1.32 1.91,-3.23l0 -15.19c0,-1.91 -0.64,-2.99 -1.91,-3.23l8.3 0c1.16,0 2.22,0.15 3.18,0.44 0.96,0.3 1.76,0.69 2.38,1.17 0.63,0.49 1.14,1.05 1.54,1.69 0.41,0.64 0.67,1.31 0.79,2 0.13,0.69 0.13,1.4 0,2.11 -0.12,0.71 -0.36,1.38 -0.72,2 -0.36,0.62 -0.85,1.19 -1.46,1.69 -0.62,0.5 -1.33,0.89 -2.12,1.16zm-3.59 -0.12c0.66,0 1.25,-0.17 1.8,-0.49 0.54,-0.33 0.98,-0.76 1.32,-1.3 0.33,-0.54 0.6,-1.15 0.79,-1.84 0.19,-0.69 0.28,-1.39 0.29,-2.11 0.01,-0.72 -0.08,-1.42 -0.26,-2.11 -0.18,-0.69 -0.43,-1.3 -0.77,-1.84 -0.33,-0.54 -0.77,-0.98 -1.32,-1.31 -0.54,-0.33 -1.16,-0.5 -1.85,-0.5l-2.72 0 0 11.49 2.72 0z"/>
     <path class="fil1" d="M75.05 34.61c1.61,0 3.06,0.31 4.36,0.94 1.3,0.62 2.35,1.44 3.15,2.45 0.8,1.01 1.41,2.17 1.85,3.46 0.43,1.3 0.65,2.61 0.65,3.97 0,1.36 -0.22,2.68 -0.65,3.97 -0.44,1.3 -1.05,2.45 -1.85,3.46 -0.8,1.01 -1.85,1.83 -3.15,2.46 -1.3,0.62 -2.75,0.93 -4.36,0.93l-7.78 0c0.74,-0.14 1.24,-0.45 1.51,-0.94 0.27,-0.48 0.41,-1.13 0.41,-1.94l0 -15.88c0,-0.81 -0.13,-1.45 -0.41,-1.94 -0.27,-0.48 -0.77,-0.8 -1.51,-0.94l7.78 0zm0 21c1.13,0.01 2.14,-0.35 3.02,-1.09 0.89,-0.74 1.56,-1.7 2.02,-2.89 0.46,-1.2 0.8,-2.52 1.02,-3.96 0.22,-1.44 0.22,-2.89 0,-4.35 -0.22,-1.45 -0.56,-2.78 -1.01,-3.97 -0.45,-1.2 -1.13,-2.18 -2.02,-2.93 -0.89,-0.76 -1.9,-1.15 -3.03,-1.15l-2.21 0 0 20.34 2.21 0zm34.38 -5.11c-0.13,0.39 -0.22,0.73 -0.27,1.01 -0.06,0.29 -0.06,0.56 -0.03,0.83 0.03,0.28 0.15,0.5 0.34,0.67 0.2,0.17 0.48,0.3 0.85,0.36l-4.58 0c1.37,-0.26 2.36,-1.22 2.95,-2.87l5.88 -16.22c0.76,2.08 1.74,4.78 2.95,8.11 1.2,3.33 2.19,6.03 2.95,8.11 0.29,0.79 0.67,1.43 1.13,1.93 0.46,0.49 1.07,0.81 1.82,0.95l-7.79 0c0.31,-0.06 0.56,-0.15 0.75,-0.27 0.19,-0.12 0.32,-0.26 0.41,-0.42 0.07,-0.16 0.11,-0.36 0.1,-0.6 -0.01,-0.24 -0.05,-0.48 -0.1,-0.71 -0.06,-0.23 -0.16,-0.52 -0.28,-0.86 -0.08,-0.24 -0.2,-0.57 -0.35,-0.96 -0.15,-0.4 -0.24,-0.63 -0.26,-0.71l-5.88 0c-0.07,0.21 -0.27,0.77 -0.59,1.66zm3.56 -9.91c-0.7,1.92 -1.6,4.45 -2.72,7.59l5.41 0c-0.98,-2.8 -1.87,-5.33 -2.69,-7.59zm0.73 13.21c0.11,0.85 0.4,1.61 0.88,2.28 0.74,0.31 1.7,0.54 2.85,0.7 -1.09,0.13 -2.04,0.36 -2.85,0.69 -0.48,0.67 -0.77,1.42 -0.88,2.26 -0.11,-0.84 -0.41,-1.59 -0.88,-2.26 -0.81,-0.33 -1.76,-0.56 -2.85,-0.69 1.15,-0.16 2.1,-0.39 2.85,-0.7 0.48,-0.67 0.77,-1.43 0.88,-2.28zm-15.66 -6.71c0.68,0.33 1.37,0.82 2.06,1.47 0.7,0.65 1.27,1.26 1.71,1.82 0.44,0.56 1.03,1.33 1.76,2.31 0.57,0.78 1.01,1.37 1.32,1.77 0.3,0.4 0.76,0.95 1.37,1.65 0.61,0.7 1.13,1.23 1.57,1.58 0.44,0.36 1.01,0.78 1.72,1.27 0.71,0.5 1.39,0.84 2.03,1.02 0.64,0.19 1.41,0.36 2.31,0.52 0.9,0.16 1.81,0.19 2.74,0.08 0.92,-0.11 1.96,-0.31 3.13,-0.62 1.16,-0.3 2.38,-0.72 3.65,-1.26 -7.03,3.78 -12.78,4.32 -17.27,1.63 -1.91,-1.14 -3.74,-2.99 -5.5,-5.55 -0.31,-0.45 -1.09,-1.67 -2.33,-3.65 -0.99,-1.6 -1.78,-2.64 -2.38,-3.14 -0.48,-0.39 -0.94,-0.59 -1.39,-0.61l-2.32 0 0 5.62c0,1.91 0.64,2.99 1.92,3.23l-7.48 0c1.27,-0.24 1.91,-1.32 1.91,-3.23l0 -15.19c0,-1.91 -0.64,-2.98 -1.91,-3.23l8.29 0c1.16,0 2.22,0.15 3.18,0.45 0.96,0.3 1.76,0.69 2.39,1.19 0.64,0.49 1.15,1.06 1.56,1.72 0.4,0.65 0.66,1.33 0.77,2.04 0.11,0.71 0.1,1.42 -0.05,2.15 -0.14,0.72 -0.41,1.4 -0.79,2.03 -0.39,0.64 -0.93,1.2 -1.61,1.72 -0.68,0.52 -1.47,0.91 -2.36,1.19zm-3.09 -0.34c0.66,0 1.25,-0.17 1.8,-0.49 0.54,-0.33 0.98,-0.76 1.31,-1.3 0.33,-0.54 0.59,-1.15 0.78,-1.84 0.19,-0.69 0.28,-1.39 0.3,-2.1 0.01,-0.72 -0.07,-1.43 -0.25,-2.11 -0.18,-0.69 -0.43,-1.3 -0.77,-1.84 -0.33,-0.54 -0.77,-0.98 -1.32,-1.3 -0.54,-0.33 -1.16,-0.5 -1.85,-0.5l-2.73 0 0 11.49 2.73 0zm36.9 -12.14c1.31,0 2.49,0.19 3.54,0.56 1.06,0.37 1.9,0.85 2.54,1.45 0.63,0.59 1.12,1.28 1.45,2.05 0.33,0.76 0.49,1.55 0.48,2.35 -0.02,0.8 -0.2,1.57 -0.56,2.35 -0.36,0.77 -0.86,1.45 -1.5,2.04 -0.64,0.6 -1.48,1.08 -2.51,1.45 -1.03,0.37 -2.18,0.56 -3.44,0.56l-2.73 0 0 5.62c0,1.91 0.64,2.99 1.91,3.23l-7.48 0c1.27,-0.24 1.91,-1.32 1.91,-3.23l0 -15.19c0,-1.91 -0.64,-2.98 -1.91,-3.23l8.3 0zm0 12.14c0.69,0 1.3,-0.17 1.85,-0.49 0.55,-0.33 1,-0.76 1.33,-1.3 0.33,-0.54 0.59,-1.15 0.77,-1.84 0.19,-0.69 0.27,-1.39 0.27,-2.1 -0,-0.72 -0.1,-1.43 -0.29,-2.11 -0.19,-0.69 -0.45,-1.3 -0.79,-1.84 -0.34,-0.54 -0.78,-0.98 -1.33,-1.3 -0.54,-0.33 -1.15,-0.5 -1.81,-0.5l-2.73 0 0 11.49 2.73 0zm9.18 9.5c1.27,-0.24 1.91,-1.32 1.91,-3.23l0 -15.19c0,-1.91 -0.64,-2.98 -1.91,-3.23l14.75 0 0.71 2.72 0 2.73c-0.15,-1.44 -0.7,-2.61 -1.64,-3.48 -0.94,-0.87 -2.11,-1.31 -3.5,-1.31l-4.76 0 0 9.84 2.39 0c0.67,0 1.23,-0.05 1.67,-0.14 0.44,-0.09 0.85,-0.26 1.22,-0.5 0.37,-0.24 0.67,-0.59 0.89,-1.04 0.22,-0.46 0.37,-1.04 0.46,-1.73l0 7.47c-0.17,-1.35 -0.59,-2.25 -1.24,-2.71 -0.65,-0.46 -1.66,-0.69 -3,-0.69l-2.39 0 0 9.83 4.76 0c1.39,0 2.55,-0.44 3.5,-1.32 0.94,-0.88 1.49,-2.04 1.65,-3.49l0 2.73 -0.71 2.72 -14.75 0zm29.7 -4.15c0,-0.58 -0.14,-1.14 -0.4,-1.67 -0.26,-0.53 -0.61,-0.99 -1.06,-1.41 -0.44,-0.42 -0.96,-0.82 -1.54,-1.21 -0.58,-0.39 -1.19,-0.76 -1.84,-1.13 -0.64,-0.36 -1.28,-0.73 -1.93,-1.11 -0.64,-0.37 -1.25,-0.78 -1.83,-1.21 -0.58,-0.44 -1.1,-0.89 -1.55,-1.37 -0.45,-0.47 -0.81,-1.02 -1.07,-1.64 -0.27,-0.63 -0.41,-1.29 -0.41,-2 -0.01,-0.97 0.31,-1.85 0.98,-2.65 0.67,-0.8 1.51,-1.41 2.54,-1.82 1.02,-0.42 2.09,-0.62 3.19,-0.62 2.64,0 4.77,0.43 6.4,1.29l0 4.49c-0.39,-1.46 -1.22,-2.69 -2.46,-3.66 -1.25,-0.98 -2.56,-1.46 -3.94,-1.46 -1.02,0 -1.84,0.27 -2.46,0.81 -0.62,0.54 -0.93,1.38 -0.93,2.52 0,0.57 0.22,1.12 0.65,1.65 0.43,0.54 0.99,1.03 1.68,1.48 0.69,0.45 1.46,0.91 2.29,1.38 0.83,0.47 1.67,0.97 2.5,1.52 0.83,0.54 1.59,1.11 2.29,1.7 0.69,0.6 1.25,1.3 1.68,2.11 0.43,0.81 0.65,1.68 0.65,2.6 0,0.8 -0.17,1.54 -0.51,2.23 -0.34,0.7 -0.84,1.31 -1.5,1.87 -0.66,0.55 -1.52,0.98 -2.6,1.3 -1.07,0.32 -2.3,0.48 -3.68,0.48 -2.68,-0.08 -4.93,-0.76 -6.76,-2.03l0.08 -5.17c0.33,1.61 1.24,3.04 2.74,4.27 1.33,1.09 2.75,1.76 4.26,2.02 1.56,0.25 2.76,-0.04 3.57,-0.87 0.63,-0.64 0.95,-1.54 0.96,-2.72z"/>
    </g>
    <path class="fil2" d="M126.85 64.73c0.32,-0.06 0.48,-0.33 0.48,-0.81l0 -3.84c0,-0.48 -0.16,-0.75 -0.48,-0.81l1.89 0c-0.32,0.06 -0.48,0.33 -0.48,0.81l0 3.84c0,0.48 0.16,0.75 0.48,0.81l-1.89 0zm5.11 0c0.19,-0.04 0.31,-0.11 0.38,-0.24 0.07,-0.12 0.1,-0.28 0.1,-0.49l0 -4.01c0,-0.2 -0.04,-0.37 -0.1,-0.49 -0.07,-0.12 -0.2,-0.2 -0.38,-0.24l1.32 0 2.92 4.8 0 -4.07c0,-0.2 -0.03,-0.37 -0.1,-0.49 -0.07,-0.12 -0.19,-0.2 -0.38,-0.24l1.13 0c-0.19,0.04 -0.31,0.12 -0.38,0.24 -0.07,0.12 -0.1,0.28 -0.1,0.49l0 4.74 -0.84 0 -2.92 -4.79c-0.01,0.39 -0.02,0.82 -0.02,1.28 0,0.46 0,0.97 0.01,1.52 0,0.56 0.01,0.98 0.01,1.26 0,0.2 0.03,0.37 0.1,0.49 0.06,0.13 0.19,0.2 0.38,0.24l-1.13 0zm11.11 -1.05c0,-0.15 -0.04,-0.29 -0.1,-0.42 -0.06,-0.13 -0.15,-0.25 -0.27,-0.35 -0.11,-0.11 -0.24,-0.2 -0.39,-0.3 -0.15,-0.1 -0.3,-0.19 -0.46,-0.29 -0.16,-0.09 -0.32,-0.19 -0.48,-0.28 -0.17,-0.09 -0.32,-0.2 -0.46,-0.31 -0.15,-0.11 -0.28,-0.22 -0.39,-0.34 -0.11,-0.12 -0.2,-0.26 -0.27,-0.41 -0.07,-0.16 -0.1,-0.33 -0.11,-0.5 0,-0.24 0.08,-0.47 0.25,-0.67 0.17,-0.2 0.38,-0.36 0.64,-0.46 0.26,-0.11 0.53,-0.16 0.81,-0.16 0.67,0 1.2,0.11 1.61,0.33l0 1.13c-0.1,-0.37 -0.31,-0.68 -0.62,-0.92 -0.31,-0.25 -0.65,-0.37 -0.99,-0.37 -0.26,0 -0.46,0.07 -0.62,0.2 -0.16,0.14 -0.24,0.35 -0.24,0.64 0,0.14 0.06,0.28 0.17,0.42 0.11,0.13 0.25,0.26 0.42,0.37 0.18,0.11 0.37,0.23 0.58,0.35 0.21,0.12 0.42,0.24 0.63,0.38 0.21,0.14 0.4,0.28 0.57,0.43 0.18,0.15 0.32,0.33 0.43,0.53 0.11,0.2 0.17,0.43 0.17,0.66 0,0.2 -0.04,0.39 -0.13,0.56 -0.09,0.18 -0.21,0.33 -0.38,0.47 -0.17,0.14 -0.38,0.25 -0.65,0.33 -0.27,0.08 -0.58,0.12 -0.93,0.12 -0.68,-0.02 -1.25,-0.19 -1.71,-0.51l0.02 -1.31c0.08,0.41 0.31,0.77 0.69,1.08 0.33,0.28 0.69,0.45 1.07,0.51 0.4,0.06 0.7,-0.01 0.91,-0.22 0.16,-0.16 0.24,-0.39 0.24,-0.69zm5.23 -4.25c-0.35,0 -0.64,0.11 -0.88,0.33 -0.24,0.22 -0.37,0.52 -0.41,0.88l0 -0.69 0.18 -0.69 4.73 0 0.18 0.69 0 0.69c-0.04,-0.36 -0.18,-0.66 -0.41,-0.88 -0.24,-0.22 -0.53,-0.33 -0.88,-0.33l-0.79 0 0 4.49c0,0.48 0.16,0.75 0.48,0.81l-1.89 0c0.32,-0.06 0.48,-0.33 0.48,-0.81l0 -4.49 -0.78 0zm7.59 0.56c-0.26,-0.41 -0.57,-0.66 -0.93,-0.73l2.05 0c-0.04,0.01 -0.07,0.02 -0.11,0.03 -0.03,0.01 -0.05,0.02 -0.07,0.04 -0.02,0.02 -0.03,0.03 -0.04,0.05 -0.02,0.02 -0.02,0.04 -0.02,0.06 0,0.03 0,0.05 0,0.07 0,0.02 0.01,0.05 0.02,0.08 0.02,0.04 0.03,0.07 0.04,0.09 0.01,0.02 0.02,0.06 0.05,0.1 0.02,0.04 0.04,0.07 0.05,0.1 0.02,0.03 0.04,0.06 0.06,0.11l1.07 1.72 1.07 -1.72c0.03,-0.04 0.05,-0.08 0.06,-0.11 0.01,-0.03 0.03,-0.06 0.05,-0.1 0.02,-0.04 0.04,-0.07 0.05,-0.1 0.01,-0.02 0.02,-0.05 0.04,-0.09 0.02,-0.04 0.02,-0.06 0.02,-0.08 0,-0.02 0,-0.04 0,-0.07 -0,-0.02 -0.01,-0.05 -0.02,-0.06 -0.01,-0.02 -0.03,-0.03 -0.04,-0.05 -0.02,-0.02 -0.04,-0.03 -0.07,-0.04 -0.03,-0.01 -0.07,-0.02 -0.11,-0.03l1.15 0c-0.36,0.07 -0.67,0.31 -0.93,0.73l-1.17 1.88 0 2.05c0,0.48 0.16,0.75 0.48,0.81l-1.89 0c0.32,-0.06 0.48,-0.33 0.48,-0.81l0 -1.78c-0.3,-0.48 -0.75,-1.2 -1.34,-2.15zm7.32 4.74c0.32,-0.06 0.48,-0.33 0.48,-0.81l0 -3.84c0,-0.48 -0.16,-0.75 -0.48,-0.81l1.89 0c-0.32,0.06 -0.48,0.33 -0.48,0.81l0 4.49 1.2 0c0.35,0 0.65,-0.11 0.89,-0.33 0.24,-0.22 0.37,-0.51 0.41,-0.88l0 0.69 -0.18 0.69 -3.72 0zm7.04 0c0.32,-0.06 0.48,-0.33 0.48,-0.81l0 -3.84c0,-0.48 -0.16,-0.75 -0.48,-0.81l3.72 0 0.18 0.69 0 0.69c-0.04,-0.36 -0.17,-0.66 -0.41,-0.88 -0.24,-0.22 -0.53,-0.33 -0.89,-0.33l-1.2 0 0 2.48 0.61 0c0.17,0 0.31,-0.01 0.42,-0.04 0.11,-0.02 0.22,-0.06 0.31,-0.13 0.09,-0.06 0.17,-0.15 0.22,-0.26 0.06,-0.11 0.09,-0.26 0.12,-0.43l0 1.89c-0.04,-0.34 -0.15,-0.57 -0.31,-0.69 -0.16,-0.11 -0.42,-0.17 -0.76,-0.17l-0.61 0 0 2.48 1.2 0c0.35,0 0.65,-0.11 0.89,-0.33 0.24,-0.22 0.37,-0.51 0.41,-0.88l0 0.69 -0.18 0.69 -3.72 0z"/>
   </g>
   <g>
    <path class="fil3" d="M5.17 32.05c-0.02,-6.68 1.03,-12.88 3.52,-18.04 2,-4.16 3.56,-6.36 6.54,-9.52 1.07,-1.13 1.91,-1.64 2.57,-2.75 -5.01,1.57 -10.8,7.98 -13.21,12.02 -3.71,6.22 -4.54,11.74 -4.56,20.54l-0.03 30.49 16.14 0 -0.01 -23.75c-0.01,-7.87 -1,-17.25 2.41,-23.91 2.26,-4.41 5.11,-7.2 9.56,-9.42 10.96,-5.47 22.13,0.07 26.83,6.74 6.7,9.51 4.76,20.59 -2.22,27.52 -9.76,9.69 -19.59,5.2 -30.7,6.69 -0.28,0.41 -0.15,0.07 -0.32,0.77 -0.16,0.66 -0.02,-0.1 -0.09,0.59l0.11 4.09c14.68,-0.23 24.87,1.38 34.49,-7.69 4.42,-4.17 8.11,-10.59 8.12,-19.5 0.04,-24.64 -30.84,-36.47 -47.15,-17.61 -4.65,5.37 -6.46,11.7 -6.45,21.15l0.06 28.98 -5.54 0 -0.05 -27.37z"/>
    <path class="fil4" d="M21.94 19.8c14.16,-8.97 25.92,0.94 26.16,12.24 0.11,5.02 -2.13,7.81 -4.01,10.83 4.29,-2.42 8.26,-5.14 9.26,-11.18 1.05,-6.31 -2.54,-11.8 -5.37,-14.79 -7.68,-8.16 -21.56,-7.87 -26.04,2.89z"/>
    <path class="fil5" d="M21.6 64.8c9.92,-0.06 18.15,0.58 26.03,-3.2 5.59,-2.69 12.67,-9.28 14.39,-14.69 -3.18,3.29 -2.61,3.23 -6.9,6.45 -9.3,6.98 -21.66,6.23 -33.51,5.98l-0 5.46z"/>
   </g>
   <polygon class="fil6" points="163.87,7.65 163.2,7.65 163.2,2.94 161.54,2.94 161.54,2.35 165.51,2.35 165.51,2.94 163.87,2.94 "/>
   <path id="_1" class="fil6" d="M168.65 7.65l-1.74 -4.64 -0.03 0c0.01,0.09 0.02,0.22 0.03,0.38 0.01,0.15 0.01,0.32 0.02,0.5 0.01,0.18 0.01,0.36 0.01,0.55l0 3.21 -0.61 0 0 -5.3 0.98 0 1.63 4.34 0.03 0 1.66 -4.34 0.98 0 0 5.3 -0.66 0 0 -3.26c0,-0.17 0,-0.35 0.01,-0.52 0.01,-0.17 0.02,-0.33 0.02,-0.48 0.01,-0.15 0.02,-0.28 0.02,-0.39l-0.03 0 -1.76 4.64 -0.55 0z"/>
  </g>
 </g>
</svg>
